<?xml version="1.0" encoding="UTF-8"?>
<svg width="24px" height="26px" viewBox="0 0 24 26" version="1.1" xmlns="http://www.w3.org/2000/svg" xmlns:xlink="http://www.w3.org/1999/xlink">
    <title>logo</title>
    <g id="Page-1" stroke="none" stroke-width="1" fill="none" fill-rule="evenodd">
        <g id="logo" transform="translate(0.000000, -0.000000)" fill="#FFFFFF" fill-rule="nonzero">
            <path d="M24,3.74027075 L23.1894526,1.28913479 L21.3793526,0 L17.9103002,2.22794585 L17.8964567,2.20562684 L15.8555386,1.27077104 L12,0.552324897 L12,1.03175986 L15.6374338,1.84230724 L17.4958446,2.79100647 L21.5434962,9.27397293 L22.8583402,12.8986933 L21.3496881,18.3518776 L17.0969276,20.8637552 L15.8385874,21.30392 L16.7655327,18.8318776 L16.7655327,17.1568217 L18.4247675,17.183661 L19.6698293,16.0366333 L19.7483696,13.5758917 L18.9381048,12.77495 L17.2184108,10.4224132 L15.2986933,11.1326663 L14.9901825,11.2849441 L14.7898764,13.9208476 L13.6052737,13.477575 L12,13.3535491 L12,13.3535491 L12,13.3535491 L11.9988699,13.3535491 L11.9988699,13.3535491 L10.5026486,13.4866157 L9.20955856,13.9267805 L9.00896998,11.2846616 L8.70045909,11.1323838 L6.78074161,10.4221307 L5.06076516,12.7746675 L4.25050029,13.5756092 L4.32960565,16.0363508 L5.57523249,17.1833785 L7.2339023,17.1565391 L7.2339023,18.8315951 L8.16113008,21.3036374 L6.9030724,20.8634726 L2.65002943,18.3515951 L1.14137728,12.8984108 L2.45650383,9.27369041 L6.50415539,2.79128899 L8.3622837,1.84258976 L12,1.03204238 L12,0.552324897 L8.14417893,1.27077104 L6.1026957,2.20562684 L6.08913479,2.22794585 L2.84327251,0 L0.810264862,1.28913479 L0,3.74027075 L0.39552678,6.52788699 L2.03470277,8.92477928 L0.543566804,12.7450029 L1.89796351,18.8245321 L11.9737257,25.3541142 L11.9737257,25.387734 L12,25.3705003 L12.0259918,25.387734 L12.0259918,25.3541142 L22.1020365,18.8245321 L23.4561507,12.7450029 L21.9647322,8.9250618 L23.6044732,6.52816951 L24,3.74027075 Z M12,23.0515833 L10.3212713,22.6701825 L8.70441436,20.9798705 L9.8155621,21.4929253 L11.3298646,21.4242731 L12,21.0278988 L12,20.0368217 L12,18.5377752 L10.5131018,18.5470983 L9.70650971,18.7298882 L8.99512655,18.077269 L9.70650971,19.5898764 L11.829641,20.0040494 L11.829641,20.5682401 L9.80539141,21.067734 L8.63830489,20.9100883 L8.62107122,20.8922896 L7.74921719,18.7445792 L7.68988817,17.2763273 L9.14825191,14.3833314 L10.4919129,13.720259 L11.9997175,13.5030018 L12,13.4854856 L12,13.5035668 L13.6171395,13.7112184 L14.851183,14.3836139 L16.3095468,17.2766098 L16.2502178,18.7448617 L15.3783637,20.8925721 L15.3611301,20.9103708 L14.1940436,21.0680165 L12.1700765,20.5685227 L12.1700765,20.004332 L14.2929253,19.5901589 L15.0048735,18.0775515 L14.2929253,18.7301707 L13.4866157,18.5473808 L12,18.5380577 L12,20.0371042 L12,21.0281813 L12.6695703,21.4245556 L14.1841554,21.4932078 L15.2950206,20.980153 L13.6784461,22.670465 L12,23.0515833 Z" id="Shape"></path>
        </g>
    </g>
</svg>